HIERARCHY
ROOT Hips
{
  OFFSET 263.056 91.6644 -274.608
  CHANNELS 6 Xposition Yposition Zposition Zrotation Xrotation Yrotation
  JOINT LeftUpLeg
  {
    OFFSET 8.64259 1.95398 -2.38835
    CHANNELS 3 Zrotation Xrotation Yrotation
    JOINT LeftLeg
    {
      OFFSET 43.7702 0 0
      CHANNELS 3 Zrotation Xrotation Yrotation
      JOINT LeftFoot
      {
        OFFSET 40.6238 0 0
        CHANNELS 3 Zrotation Xrotation Yrotation
        JOINT LeftToeBase
        {
          OFFSET 12.7242 0 0
          CHANNELS 3 Zrotation Xrotation Yrotation
          End Site
          {
            OFFSET 0 0 0
          }
        }
      }
    }
  }
  JOINT RightUpLeg
  {
    OFFSET -8.2249 1.95398 -2.59336
    CHANNELS 3 Zrotation Xrotation Yrotation
    JOINT RightLeg
    {
      OFFSET 43.5653 0 0
      CHANNELS 3 Zrotation Xrotation Yrotation
      JOINT RightFoot
      {
        OFFSET 40.6238 0 0
        CHANNELS 3 Zrotation Xrotation Yrotation
        JOINT RightToeBase
        {
          OFFSET 12.7242 0 0
          CHANNELS 3 Zrotation Xrotation Yrotation
          End Site
          {
            OFFSET 0 0 0
          }
        }
      }
    }
  }
  JOINT Spine
  {
    OFFSET 0.165834 0.87714 6.61349
    CHANNELS 3 Zrotation Xrotation Yrotation
    JOINT Spine1
    {
      OFFSET 7.38963 1.71661e-005 0
      CHANNELS 3 Zrotation Xrotation Yrotation
      JOINT Spine2
      {
        OFFSET 11.9445 1.14441e-005 0
        CHANNELS 3 Zrotation Xrotation Yrotation
        JOINT Spine3
        {
          OFFSET 14.7254 4.19617e-005 0
          CHANNELS 3 Zrotation Xrotation Yrotation
          JOINT Spine4
          {
            OFFSET 10.9679 0 0
            CHANNELS 3 Zrotation Xrotation Yrotation
            JOINT RightShoulder
            {
              OFFSET 2.46616 -1.6653 3.69651
              CHANNELS 3 Zrotation Xrotation Yrotation
              JOINT RightArm
              {
                OFFSET 13.0012 0 0
                CHANNELS 3 Zrotation Xrotation Yrotation
                JOINT RightForeArm
                {
                  OFFSET 28.7848 1.52588e-005 0
                  CHANNELS 3 Zrotation Xrotation Yrotation
                  JOINT RightHand
                  {
                    OFFSET 26.5688 1.52588e-005 0
                    CHANNELS 3 Zrotation Xrotation Yrotation
                    End Site
                    {
                      OFFSET 0 0 0
                    }
                  }
                }
              }
            }
            JOINT LeftShoulder
            {
              OFFSET 2.38034 -1.29275 -3.7523
              CHANNELS 3 Zrotation Xrotation Yrotation
              JOINT LeftArm
              {
                OFFSET 16.3182 6.10352e-005 0
                CHANNELS 3 Zrotation Xrotation Yrotation
                JOINT LeftForeArm
                {
                  OFFSET 27.0901 0 0
                  CHANNELS 3 Zrotation Xrotation Yrotation
                  JOINT LeftHand
                  {
                    OFFSET 24.5451 1.52588e-005 0
                    CHANNELS 3 Zrotation Xrotation Yrotation
                    End Site
                    {
                      OFFSET 0 0 0
                    }
                  }
                }
              }
            }
            JOINT Neck
            {
              OFFSET 5.0226 -0.0266342 0
              CHANNELS 3 Zrotation Xrotation Yrotation
              JOINT Head
              {
                OFFSET 6.69364 2.86102e-005 0
                CHANNELS 3 Zrotation Xrotation Yrotation
                End Site
                {
                  OFFSET 0 0 0
                }
              }
            }
          }
        }
      }
    }
  }
}
MOTION
Frames:	18
Frame Time:	0.0416667
-234.221 96.2227 -218.667 91.9544 -65.2788 91.6933 -171.42 2.72664 91.8465 -8.89407 -2.07284 0.104141 60.239 2.81234 10.4123 36.6316 8.5421 -5.61517 177.085 2.04446 89.7438 -12.737 2.03568 -0.728227 67.4002 -3.22947 -1.75925 31.0286 -0.253459 9.06699 -0.466371 6.86467 -89.8794 13.1462 -0.867521 0.348899 1.47549 -0.85131 0.386739 -21.062 -0.932274 0.0720229 -1.04931 -0.932263 0.0720186 88.8721 -48.1325 -103.029 25.6076 -2.95685 21.7873 -0.080717 -0.226398 -96.6643 -77.2806 -5.83803 1.68043 -99.7629 -44.189 62.1057 -30.4961 13.1801 5.67767 10.4054 13.5906 -43.6169 4.26898 0.231824 1.18136 2.91584 5.63082 2.79781 3.60013 5.10311 0.441053 
-234.082 96.1806 -218.384 90.9984 -63.9375 90.8736 -171.488 3.07074 92.1316 -8.98251 -0.754727 0.101401 60.1937 2.65138 10.154 36.9492 8.76577 -7.87815 176.909 1.76583 89.8565 -12.1352 4.38581 -0.413178 68.4839 -3.76499 -2.01656 28.8283 -0.795107 12.4129 -0.661777 6.84946 -89.8749 13.1785 -1.25305 0.407301 1.50806 -1.23389 0.462056 -21.0319 -1.31752 0.0118155 -1.01928 -1.31751 0.0118169 88.9226 -47.8942 -103.012 26.264 -3.1058 20.7469 0.310746 -0.241643 -96.3411 -73.9586 -3.34405 -1.25762 -99.392 -43.7831 62.5108 -31.116 12.6997 6.17351 9.81631 10.8539 -46.7992 7.36668 0.660695 4.54083 3.63878 7.36053 2.3211 3.37196 6.86087 0.419061 
-234.49 96.1426 -217.888 93.8804 -66.248 92.2839 -171.324 0.473974 91.2096 -7.04518 -3.3662 -0.125732 59.724 2.69097 9.86551 36.145 7.95341 -9.26767 177.089 2.1043 89.0897 -14.8815 0.587465 -1.49996 68.3777 -3.42812 -1.84254 32.0108 -0.133089 9.76492 -0.505071 6.96146 -89.6967 12.9535 -0.857231 0.709946 1.28261 -0.825131 0.74698 -21.2542 -1.03096 0.419472 -1.24153 -1.03096 0.419476 88.0448 -47.8924 -104.384 26.1036 -1.58185 20.7495 6.51612 3.95378 -97.4366 -65.1526 -0.425405 -5.46576 -98.7911 -43.4541 63.3093 -31.6696 13.0682 7.31013 11.5405 8.1157 -54.4999 5.60097 0.661468 6.23969 3.11799 8.94989 1.9387 4.5209 8.53266 0.881126 
-234.411 96.0353 -217.428 92.8618 -67.105 91.2979 -171.541 0.63165 91.0779 -7.39819 -4.56324 0.125363 60.029 2.69273 10.1679 36.0026 7.78193 -10.7837 177.413 2.67437 89.2183 -15.5258 -0.3288 -1.83674 68.6854 -3.65291 -1.96081 32.9371 0.0084529 9.20008 -0.464949 6.91633 -89.6796 13.0435 -0.768899 0.735228 1.37259 -0.735785 0.768347 -21.1636 -0.954308 0.470149 -1.15095 -0.954323 0.470137 87.8071 -47.4484 -104.882 25.441 3.21743 20.9623 2.32444 -2.78526 -95.96 -61.5846 0.880578 -7.19602 -98.0427 -43.0062 64.2976 -32.2521 15.9831 8.16799 13.6968 4.85276 -64.7664 7.04806 0.487219 2.752 3.00425 9.914 2.00595 4.78371 9.47475 0.885869 
-234.312 95.9919 -217.05 92.4771 -68.4615 91.2424 -171.488 0.455652 91.2646 -7.404 -5.85593 0.284021 60.2827 2.70949 10.2962 36.7554 8.496 -10.1378 177.795 2.93787 89.5117 -15.8549 -1.90717 -2.13636 68.4471 -3.62937 -1.96151 33.7897 0.108339 10.5785 -0.35388 6.94617 -89.6952 12.9829 -0.556165 0.677356 1.31189 -0.525811 0.70117 -21.2234 -0.734021 0.478895 -1.21077 -0.734022 0.47889 88.2829 -46.321 -104.452 27.9882 6.03864 19.9024 10.474 -0.367822 -91.8725 -51.862 2.76974 -12.1725 -98.2046 -43.1786 64.1119 -31.6106 19.1945 8.89586 13.5458 -1.31578 -77.9313 9.01457 0.493935 1.48742 2.5378 10.6257 2.55791 5.93222 10.0352 0.027529 
-234.46 95.848 -216.924 92.1919 -69.6716 90.8653 -171.474 0.809529 91.14 -8.27838 -6.99807 0.255899 60.5208 3.09198 10.5131 37.072 8.82963 -9.16895 178.277 3.40804 89.6564 -16.4652 -2.93462 -2.67478 68.5975 -3.70121 -1.99694 34.6961 0.243083 10.9756 -0.343662 7.03446 -89.6657 12.8063 -0.522458 0.731015 1.13526 -0.489784 0.753294 -21.3997 -0.718012 0.540202 -1.3871 -0.718005 0.540195 88.0693 -45.6839 -104.976 30.2856 10.5052 18.2494 20.1605 6.39402 -88.8375 -21.3084 0.40678 -8.72087 -98.3171 -43.5433 64.0797 -30.2807 23.9257 7.99634 8.32964 -7.33619 -90.4205 5.88858 0.422933 2.69007 2.02285 11.1742 3.02745 8.07115 10.473 -0.350888 
-234.717 95.6662 -216.989 90.8928 -71.6629 89.094 -171.164 1.76219 91.4322 -9.94261 -7.89627 -0.468977 59.7581 3.95361 11.8543 40.5139 12.0051 -9.77729 178.81 5.26091 89.3019 -18.79 -4.71041 -3.45969 69.1746 -3.72458 -1.98344 34.9022 0.260782 12.7719 -0.29115 7.18104 -89.6082 12.5126 -0.391829 0.827941 0.841392 -0.355014 0.844373 -21.6926 -0.622532 0.67191 -1.67998 -0.622544 0.671908 86.9097 -46.5992 -106.547 29.496 14.9258 16.583 17.7662 10.1097 -81.0039 1.65314 0.306705 -6.71218 -98.7607 -43.5886 63.4095 -27.6983 26.945 3.87205 8.61036 -10.6654 -101.416 3.09922 0.261972 2.96085 2.16017 11.8626 3.86664 9.71502 10.8787 -1.41154 
-234.83 95.3096 -217.485 85.407 -73.7975 84.3524 -169.592 6.5775 91.678 -15.5947 -7.52943 -2.24792 59.1912 4.57511 12.9627 44.0857 15.2372 -10.2304 179.695 8.28867 89.8867 -20.7915 -6.25879 -3.85168 69.476 -3.64159 -1.92464 35.8845 0.43225 12.8859 -0.228328 7.34188 -89.6618 12.1907 -0.293677 0.707197 0.519566 -0.262268 0.719429 -22.0147 -0.49264 0.586247 -2.00208 -0.49264 0.586245 84.6989 -47.8889 -109.576 27.4443 21.1555 11.7614 5.81325 4.91923 -70.6134 14.4049 0.129464 -6.6935 -99.6046 -42.711 61.7393 -24.5796 29.84 -1.76673 9.30619 -13.7871 -107.776 2.03791 0.185603 2.71125 3.15568 12.3903 3.84486 10.7051 11.3646 -1.19377 
-235.012 94.9529 -218.365 77.8961 -75.6237 77.6 -166.999 13.7948 93.391 -24.9362 -5.64406 -4.31839 57.4371 2.02341 10.6515 47.4012 19.1177 -6.15184 -179.456 11.1201 90.394 -21.6249 -7.23417 -4.09971 69.9454 -3.6814 -1.92901 35.1257 0.292131 13.796 -0.224046 7.61 -89.7451 11.6544 -0.326092 0.542039 -0.016635 -0.301923 0.555855 -22.5515 -0.473923 0.418974 -2.53887 -0.473924 0.418969 82.7111 -48.3402 -112.464 25.7287 21.4601 9.19133 1.92785 4.63911 -66.3537 15.7963 0.171917 -5.83225 -99.9327 -40.9373 60.4629 -21.1481 32.2074 -8.26925 10.0718 -15.5179 -110.368 0.63246 0.129453 4.00274 4.25039 13.1262 4.43131 13.0525 11.9553 -0.736938 
-235.227 94.7793 -219.609 69.1551 -77.0491 69.2537 -164.9 21.4721 94.5319 -33.8408 -3.13617 -5.85519 54.5194 -1.75253 6.88397 45.8184 19.6807 3.75429 -178.561 14.2602 90.6554 -22.7641 -7.96885 -4.57307 69.6227 -3.51143 -1.8402 36.1595 0.469436 12.2374 -0.218369 8.00285 -89.834 10.8686 -0.357946 0.36397 -0.80233 -0.341574 0.37937 -23.3377 -0.450787 0.239562 -3.32502 -0.450788 0.239564 81.6582 -47.9494 -114.215 24.484 19.5789 6.90354 2.08813 3.15028 -64.5826 8.00002 0.221101 -4.43935 -101.29 -39.615 57.7054 -17.4058 33.055 -13.5598 13.6331 -16.6978 -109.275 1.0026 0.206797 5.59195 5.31976 13.8035 5.23213 15.9947 12.5263 0.171405 
-235.26 94.5901 -220.878 51.6993 -77.9452 52.0691 -163.96 29.0405 94.5695 -38.1322 2.69429 -6.85012 54.6259 -2.27661 5.39384 44.1754 20.0734 14.2606 -177.377 18.809 90.7691 -24.1291 -7.66095 -5.145 69.6106 -3.62411 -1.89798 40.3398 1.05728 8.96417 -0.183846 8.32915 -89.8516 10.2159 -0.298501 0.321147 -1.45506 -0.284082 0.333961 -23.9903 -0.381227 0.216586 -3.97767 -0.381219 0.216583 80.7954 -47.6125 -115.66 23.4436 17.2257 2.91165 0.927265 4.03516 -62.0219 2.29797 0.150768 -3.3319 -102.558 -38.386 55.0778 -13.5355 33.4508 -17.7775 16.8568 -16.7417 -106.507 3.96609 0.6451 9.04285 7.03684 14.4511 5.16162 18.2604 13.3627 1.85738 
-234.936 94.4833 -222.05 31.9023 -78.5406 33.2173 -164.437 34.1201 95.7191 -35.603 9.3044 -7.59575 57.5564 -0.43811 5.69324 47.4332 23.2229 9.95083 -175.903 22.0395 91.3612 -23.8351 -4.0477 -5.35155 69.5259 -4.2924 -2.25446 40.3211 1.02288 8.06446 -0.160085 8.75539 -89.8842 9.36343 -0.267142 0.248393 -2.3075 -0.255955 0.259904 -24.8428 -0.32945 0.156631 -4.83016 -0.329442 0.156625 79.9048 -47.209 -117.182 22.4428 14.6271 -1.75183 1.30872 4.02381 -59.1274 -2.65762 0.0324655 -3.23232 -102.914 -37.568 54.0873 -10.6984 32.263 -20.5595 26.2464 -15.5383 -100.864 10.887 2.05612 13.7087 9.62674 15.6831 5.88444 20.3223 14.3957 2.57405 
-234.486 94.0613 -223.158 20.3639 -77.3883 21.86 -166.711 37.6396 96.4479 -30.2243 8.92287 -6.62366 60.2777 2.46018 8.17661 48.8616 24.2993 7.63344 -175.515 25.7561 90.8793 -25.4166 1.20926 -5.06696 70.4207 -5.25039 -2.70573 37.2039 0.61336 8.51894 -0.256208 9.25237 -89.8627 8.36968 -0.450754 0.29882 -3.30124 -0.43717 0.318364 -25.8369 -0.519734 0.149522 -5.82427 -0.519726 0.14953 79.6536 -46.8922 -117.699 21.5843 12.8658 -6.76982 2.05679 4.4019 -57.5507 -8.2741 -0.1549 -2.47352 -104.262 -36.7119 51.4663 -8.16583 27.846 -22.2608 30.304 -11.0735 -95.1448 14.5042 2.89009 15.5233 12.6172 16.3662 5.95221 22.2889 15.1401 3.83896 
-234.286 93.2358 -223.98 7.49743 -74.2989 8.43351 -168.315 41.9423 97.2322 -25.0737 2.14827 -5.5846 63.1528 4.93889 9.34354 47.4524 23.1848 9.73232 -174.535 32.1544 89.6064 -28.4097 0.876175 -5.17486 68.2036 -4.85265 -2.58275 36.6247 0.523524 6.73495 -0.278239 9.53014 -89.6619 7.81417 -0.40797 0.689164 -3.8569 -0.377252 0.706442 -26.3916 -0.596229 0.534697 -6.37894 -0.596233 0.534682 78.2535 -47.428 -119.584 19.6207 11.9836 -10.731 2.44684 4.36677 -57.0282 -14.1487 -0.377076 -2.13737 -105.473 -35.5801 48.8802 -6.05183 21.5351 -22.8988 29.477 -5.80526 -89.366 18.454 3.62406 15.722 15.2098 16.959 5.37064 24.1165 15.8868 4.52994 
-233.642 91.9495 -224.68 1.25101 -70.9129 2.29275 -169.193 46.5652 98.1648 -21.5995 -3.85862 -4.88775 64.0411 6.53715 12.6149 47.2451 21.7456 5.51015 -173.659 38.9206 88.8099 -33.0201 1.55684 -5.21574 67.9791 -4.95375 -2.62954 37.7255 0.700504 9.72476 -0.251839 9.80085 -89.623 7.27265 -0.340198 0.759029 -4.39847 -0.306458 0.773265 -26.9327 -0.552585 0.621714 -6.92004 -0.552583 0.621708 78.1007 -47.5219 -119.772 17.462 11.0789 -14.5052 4.639 5.62558 -56.6204 -18.9526 -0.757466 -0.960704 -107.361 -35.002 45.5278 -1.9494 14.4687 -25.4865 15.6353 -1.98201 -81.4973 19.899 2.87381 10.596 18.5931 17.0092 5.17076 24.6427 15.9323 5.16904 
-232.479 90.3699 -225.312 -2.30075 -69.1158 -0.246767 -169.284 50.3058 99.7687 -20.8612 -3.81661 -5.06746 61.2162 3.96558 12.6316 50.9005 24.1948 -0.316565 -174.158 44.1006 88.9102 -38.2243 1.66535 -4.56227 69.1067 -5.3569 -2.78972 40.2541 1.22389 13.3677 -0.261033 10.2199 -89.6126 6.43476 -0.357065 0.775445 -5.23637 -0.322594 0.790405 -27.7706 -0.573613 0.63228 -7.75797 -0.573614 0.632283 76.7865 -47.434 -121.78 15.3621 10.9186 -18.1054 7.22774 7.78846 -54.4592 -21.1666 -1.09299 0.216967 -107.884 -34.1507 44.1545 1.04609 7.47496 -28.1457 6.97528 -1.49508 -71.2935 14.3951 1.31547 5.06388 21.8343 17.3082 4.26819 25.5963 16.3386 5.1826 
-231.316 88.3611 -225.729 -10.2915 -66.9888 -6.03771 -166.166 57.1267 102.134 -28.4224 -3.66028 -7.02701 58.498 0.142579 8.63667 42.4537 15.3943 1.52648 -174.673 49.5176 90.6429 -43.5795 0.427814 -3.88347 70.5917 -5.99582 -3.03711 42.3541 1.75846 16.1569 -0.0212976 10.491 -89.704 5.89133 0.0816734 0.579574 -5.77976 0.107098 0.575406 -28.3139 -0.0962872 0.577329 -8.30126 -0.0962832 0.577323 74.0876 -47.5187 -125.733 10.6822 10.8457 -19.4033 7.16401 8.21151 -51.4597 -19.668 -1.03533 0.418405 -110.58 -34.7297 40.3128 6.57217 1.94658 -30.3714 1.72269 -2.16441 -59.4359 9.60252 0.244851 -1.17283 23.9428 17.8846 5.46769 26.4535 15.9271 3.42721 
-230.212 86.4082 -226.257 -17.5222 -65.647 -10.8571 -160.951 63.7996 103.03 -36.101 1.11298 -9.35189 57.2421 -0.257985 10.9899 43.9445 16.6322 -0.852511 -176.602 53.5298 93.5144 -48.1981 -0.745093 -2.87355 71.4364 -6.54463 -3.24746 44.0059 2.02015 14.9729 0.261039 10.8373 -89.6318 5.19634 0.673972 0.709173 -6.47463 0.704534 0.678819 -29.0089 0.429686 0.878933 -8.99626 0.429686 0.878927 70.4949 -48.8471 -130.232 5.39259 11.1155 -21.4971 13.1054 12.6304 -49.201 -17.3224 -0.581747 -1.82456 -111.66 -33.1337 37.5604 11.2447 -2.19901 -31.5533 -2.02544 -4.3008 -50.0139 6.90546 0.00753257 -3.17375 26.8146 17.7706 1.94572 25.833 17.1077 4.43802 
